<?xml version="1.0" encoding="utf-8"?>
<!-- Generator: Adobe Illustrator 19.1.0, SVG Export Plug-In . SVG Version: 6.00 Build 0)  -->
<!DOCTYPE svg PUBLIC "-//W3C//DTD SVG 1.1//EN" "http://www.w3.org/Graphics/SVG/1.1/DTD/svg11.dtd">
<svg version="1.1" id="Layer_1" xmlns="http://www.w3.org/2000/svg" xmlns:xlink="http://www.w3.org/1999/xlink" x="0px" y="0px"
	 viewBox="241 283.9 1093.5 226.1" style="enable-background:new 241 283.9 1093.5 226.1;" xml:space="preserve">
<style type="text/css">
	.st0{fill:#F58546;}
	.st1{fill:#3F82C7;}
	.st2{fill:#FFFFFF;}
</style>
<g>
	<path class="st0" d="M1116.1,378c0.1,10.1-8,18.4-18,18.4c-10,0.1-18.1-8.1-18.2-18.2s8-18.4,18-18.4
		C1107.9,359.7,1116,367.8,1116.1,378"/>
	<path class="st1" d="M753.7,344.2c45.4-38.7,103-60.2,162.8-60.2c60.8,0,119.4,22.2,165.1,62.2l-12.4,14.6
		c-42.3-37-96.4-57.5-152.7-57.5c-55.3,0-108.5,19.8-150.5,55.6L753.7,344.2z"/>
	<polygon class="st1" points="1332.1,410.3 1289.5,447.1 1334.5,508.9 1310.4,508.9 1275.9,459.1 1260.3,471.6 1260.3,508.9 
		1242.1,508.9 1242.1,373.5 1260.3,373.5 1260.3,452 1308.2,410.3 	"/>
	<path class="st1" d="M1222.6,441.8v67.1h-18.7v-60.7c0-8.9-1.7-15.4-5.1-19.4c-3.7-4.3-10-6.4-18.8-6.4c-7.2,0-13.4,2.1-18.7,6.4
		c-7.1,5.8-10.6,14.6-10.6,26.4v53.7H1132v-98.6h17.5v13.9h0.5c8.6-11.2,19.8-16.8,33.6-16.8c10.7,0,19.4,2.2,26,6.6
		C1218.3,419.8,1222.6,429.1,1222.6,441.8"/>
	<rect x="1089.1" y="410.3" class="st1" width="18.8" height="98.6"/>
	<polygon class="st1" points="978.4,373.5 999,373.5 999,492.7 1076.5,492.7 1076.5,508.9 978.4,508.9 	"/>
	<path class="st2" d="M873.5,451.8h62.1c-1.4-19.6-11.8-29.4-31.1-29.4c-8.5,0-15.8,3-21.9,8.9C876.6,437.1,873.5,444,873.5,451.8
		 M934.6,478h18.8c-0.5,3.5-2.2,7.5-4.9,12.1c-3.8,6.3-8.8,11.2-14.9,14.9c-7.6,4.5-17.7,6.8-30.3,6.8c-15.3,0-27.5-4.7-36.7-14
		c-8.7-9-13.1-20.9-13.1-35.4c0-16.2,4.3-29.2,12.9-38.8c9.4-10.7,22.9-16,40.5-16c15.7,0,27.7,5.2,36,15.6c8,10.1,12,24,12,41.9
		h-81.4c0,21.6,10.8,32.4,32.4,32.4c8.1,0,15-2.3,20.8-7C931.7,486.4,934.3,482.2,934.6,478"/>
	<path class="st2" d="M846.7,443.5h-18c-2.5-14.1-11.4-21.1-26.5-21.1c-10.6,0-18.6,4-23.9,12.1c-4.5,6.5-6.7,14.9-6.7,25.1
		c0,25.3,10.2,37.9,30.5,37.9c6.4,0,12.1-2,17-6.1s8.1-9.8,9.7-17.3h18c-1.2,9.8-4.9,18-11.1,24.7c-8.2,8.7-19.6,13-34.2,13
		c-15.3,0-27.5-4.7-36.7-14c-8.7-9-13.1-20.9-13.1-35.4c0-16.2,4.3-29.2,12.9-38.8c9.4-10.7,22.9-16,40.5-16
		c13.4,0,23.9,3.8,31.3,11.5C842.3,425.4,845.8,433.5,846.7,443.5"/>
	<rect x="717.7" y="410.3" class="st2" width="18.8" height="98.6"/>
	<path class="st2" d="M697.4,410.3V424h-17.9v64.1c0,5.2,3.8,7.7,11.3,7.7h6.6v13c-10.6,0.9-15.3,1.3-14.1,1.3c-8.5,0-14.6-2-18.2-6
		c-2.8-3.4-4.3-8.4-4.3-15.1v-65h-15.2v-13.8h15.2v-27.4h18.7v27.5H697.4z"/>
	<path class="st2" d="M637.8,443.5h-18c-2.5-14.1-11.4-21.1-26.5-21.1c-10.6,0-18.6,4-23.9,12.1c-4.5,6.5-6.7,14.9-6.7,25.1
		c0,25.3,10.2,37.9,30.5,37.9c6.4,0,12.1-2,17-6.1s8.1-9.8,9.7-17.3h18c-1.2,9.8-4.9,18-11.1,24.7c-8.2,8.7-19.6,13-34.2,13
		c-15.3,0-27.5-4.7-36.7-14c-8.7-9-13.1-20.9-13.1-35.4c0-16.2,4.3-29.2,12.9-38.8c9.4-10.7,22.9-16,40.5-16
		c13.4,0,23.9,3.8,31.3,11.5C633.4,425.4,636.9,433.5,637.8,443.5"/>
	<path class="st2" d="M502.3,474.8v-16.2c-2.9,2.1-13.2,4.2-30.8,6.2c-15.9,1.9-23.9,7.2-23.9,16c0,11.4,6.8,17.2,20.3,17.2
		c9,0,16.9-2.3,23.9-6.8C498.8,486.6,502.3,481.2,502.3,474.8 M451,440.3h-17.2c0.8-21.9,16.1-32.8,45.9-32.8c9,0,17,1.4,24.1,4.4
		c11.6,4.7,17.4,12.4,17.4,23.3v57c0,3.9,2,5.9,6.1,5.9c1.3,0,3.4-0.4,6.2-1.1v12.1c-5.4,1.3-8.7,1.9-10.2,1.9
		c-7.5,0-12.8-1.6-15.9-4.7c-2.3-2.3-3.6-5.7-3.9-10.4c-11.1,10.7-24.6,16-40.3,16c-10.3,0-18.6-2.6-25.1-7.9s-9.7-12.1-9.7-20.6
		c0-18.1,11.3-28.4,33.9-30.9l30.8-3.4c6.6-0.8,9.8-4.7,9.8-11.7c0-10.7-8.7-16-26.2-16c-9.4,0-16.2,2.2-20.3,6.6
		C453.6,430.7,451.9,434.9,451,440.3"/>
	<path class="st2" d="M389.8,451.6v57.3H371v-98.6h17.7v16.4h0.5c8.3-12.8,18.7-19.2,31.3-19.2c1.7,0,3.4,0.2,4.9,0.6v17.2h-7
		c-8.5,0-15.4,2.5-20.6,7.6C392.4,437.9,389.8,444.2,389.8,451.6"/>
	<path class="st2" d="M303.6,389.2h-42v46.9h41.1c20.8,0,31.1-8.1,31.1-24.3C333.9,396.7,323.8,389.2,303.6,389.2 M309.8,451.8
		h-48.2v57.1H241V373.5h68.8c13.9,0,24.9,3.5,33.1,10.7c8.2,7.1,12.3,16.2,12.3,27.4c0,10.8-3.4,19.9-10.3,27.2
		C336.8,447.4,325.1,451.8,309.8,451.8"/>
</g>
</svg>
