<?xml version="1.0" encoding="utf-8"?>
<!-- Generator: Adobe Illustrator 19.1.0, SVG Export Plug-In . SVG Version: 6.00 Build 0)  -->
<!DOCTYPE svg PUBLIC "-//W3C//DTD SVG 1.1//EN" "http://www.w3.org/Graphics/SVG/1.1/DTD/svg11.dtd">
<svg version="1.1" id="Layer_1" xmlns="http://www.w3.org/2000/svg" xmlns:xlink="http://www.w3.org/1999/xlink" x="0px" y="0px"
	 viewBox="258 243.9 1093.5 226.1" style="enable-background:new 258 243.9 1093.5 226.1;" xml:space="preserve">
<style type="text/css">
	.st0{fill:#F58546;}
	.st1{fill:#3F82C7;}
</style>
<g>
	<path class="st0" d="M1133.1,337.9c0.1,10.1-8,18.4-18,18.4c-10,0.1-18.1-8.1-18.2-18.2c-0.1-10.1,8-18.4,18-18.4
		C1124.9,319.6,1133,327.7,1133.1,337.9"/>
	<path class="st1" d="M770.7,304.1c45.4-38.7,103-60.2,162.8-60.2c60.8,0,119.4,22.2,165.1,62.2l-12.4,14.6
		c-42.3-37-96.4-57.5-152.7-57.5c-55.3,0-108.5,19.8-150.5,55.6L770.7,304.1z"/>
	<polygon class="st1" points="1349.1,370.2 1306.5,407 1351.5,468.8 1327.4,468.8 1292.9,419 1277.3,431.5 1277.3,468.8 
		1259.1,468.8 1259.1,333.4 1277.3,333.4 1277.3,411.9 1325.2,370.2 	"/>
	<path class="st1" d="M1239.6,401.7v67.1h-18.7v-60.7c0-8.9-1.7-15.4-5.1-19.4c-3.7-4.3-10-6.4-18.8-6.4c-7.2,0-13.4,2.1-18.7,6.4
		c-7.1,5.8-10.6,14.6-10.6,26.4v53.7H1149v-98.6h17.5v13.9h0.5c8.6-11.2,19.8-16.8,33.6-16.8c10.7,0,19.4,2.2,26,6.6
		C1235.3,379.7,1239.6,389,1239.6,401.7"/>
	<rect x="1106.1" y="370.2" class="st1" width="18.8" height="98.6"/>
	<polygon class="st1" points="995.4,333.4 1016,333.4 1016,452.6 1093.5,452.6 1093.5,468.8 995.4,468.8 	"/>
	<path d="M890.5,411.7h62.1c-1.4-19.6-11.8-29.4-31.1-29.4c-8.5,0-15.8,3-21.9,8.9C893.6,397,890.5,403.9,890.5,411.7 M951.6,437.9
		h18.8c-0.5,3.5-2.2,7.5-4.9,12.1c-3.8,6.3-8.8,11.2-14.9,14.9c-7.6,4.5-17.7,6.8-30.3,6.8c-15.3,0-27.5-4.7-36.7-14
		c-8.7-9-13.1-20.9-13.1-35.4c0-16.2,4.3-29.2,12.9-38.8c9.4-10.7,22.9-16,40.5-16c15.7,0,27.7,5.2,36,15.6c8,10.1,12,24,12,41.9
		h-81.4c0,21.6,10.8,32.4,32.4,32.4c8.1,0,15-2.3,20.8-7C948.7,446.3,951.3,442.1,951.6,437.9"/>
	<path d="M863.7,403.4h-18c-2.5-14.1-11.4-21.1-26.5-21.1c-10.6,0-18.6,4-23.9,12.1c-4.5,6.5-6.7,14.9-6.7,25.1
		c0,25.3,10.2,37.9,30.5,37.9c6.4,0,12.1-2,17-6.1s8.1-9.8,9.7-17.3h18c-1.2,9.8-4.9,18-11.1,24.7c-8.2,8.7-19.6,13-34.2,13
		c-15.3,0-27.5-4.7-36.7-14c-8.7-9-13.1-20.9-13.1-35.4c0-16.2,4.3-29.2,12.9-38.8c9.4-10.7,22.9-16,40.5-16
		c13.4,0,23.9,3.8,31.3,11.5C859.3,385.3,862.8,393.4,863.7,403.4"/>
	<rect x="734.7" y="370.2" width="18.8" height="98.6"/>
	<path d="M714.4,370.2v13.7h-17.9V448c0,5.2,3.8,7.7,11.3,7.7h6.6v13c-10.6,0.9-15.3,1.3-14.1,1.3c-8.5,0-14.6-2-18.2-6
		c-2.8-3.4-4.3-8.4-4.3-15.1v-65h-15.2v-13.8h15.2v-27.4h18.7v27.5H714.4z"/>
	<path d="M654.8,403.4h-18c-2.5-14.1-11.4-21.1-26.5-21.1c-10.6,0-18.6,4-23.9,12.1c-4.5,6.5-6.7,14.9-6.7,25.1
		c0,25.3,10.2,37.9,30.5,37.9c6.4,0,12.1-2,17-6.1c4.9-4.1,8.1-9.8,9.7-17.3h18c-1.2,9.8-4.9,18-11.1,24.7c-8.2,8.7-19.6,13-34.2,13
		c-15.3,0-27.5-4.7-36.7-14c-8.7-9-13.1-20.9-13.1-35.4c0-16.2,4.3-29.2,12.9-38.8c9.4-10.7,22.9-16,40.5-16
		c13.4,0,23.9,3.8,31.3,11.5C650.4,385.3,653.9,393.4,654.8,403.4"/>
	<path d="M519.3,434.7v-16.2c-2.9,2.1-13.2,4.2-30.8,6.2c-15.9,1.9-23.9,7.2-23.9,16c0,11.4,6.8,17.2,20.3,17.2
		c9,0,16.9-2.3,23.9-6.8C515.8,446.5,519.3,441.1,519.3,434.7 M468,400.2h-17.2c0.8-21.9,16.1-32.8,45.9-32.8c9,0,17,1.4,24.1,4.4
		c11.6,4.7,17.4,12.4,17.4,23.3v57c0,3.9,2,5.9,6.1,5.9c1.3,0,3.4-0.4,6.2-1.1V469c-5.4,1.3-8.7,1.9-10.2,1.9
		c-7.5,0-12.8-1.6-15.9-4.7c-2.3-2.3-3.6-5.7-3.9-10.4c-11.1,10.7-24.6,16-40.3,16c-10.3,0-18.6-2.6-25.1-7.9
		c-6.5-5.3-9.7-12.1-9.7-20.6c0-18.1,11.3-28.4,33.9-30.9l30.8-3.4c6.6-0.8,9.8-4.7,9.8-11.7c0-10.7-8.7-16-26.2-16
		c-9.4,0-16.2,2.2-20.3,6.6C470.6,390.6,468.9,394.8,468,400.2"/>
	<path d="M406.8,411.5v57.3H388v-98.6h17.7v16.4h0.5c8.3-12.8,18.7-19.2,31.3-19.2c1.7,0,3.4,0.2,4.9,0.6v17.2h-7
		c-8.5,0-15.4,2.5-20.6,7.6C409.4,397.8,406.8,404.1,406.8,411.5"/>
	<path d="M320.6,349.1h-42V396h41.1c20.8,0,31.1-8.1,31.1-24.3C350.9,356.6,340.8,349.1,320.6,349.1 M326.8,411.7h-48.2v57.1H258
		V333.4h68.8c13.9,0,24.9,3.5,33.1,10.7c8.2,7.1,12.3,16.2,12.3,27.4c0,10.8-3.4,19.9-10.3,27.2
		C353.8,407.3,342.1,411.7,326.8,411.7"/>
</g>
</svg>
